<?xml version="1.0" encoding="utf-8"?>
<!-- Generator: Adobe Illustrator 15.0.2, SVG Export Plug-In . SVG Version: 6.00 Build 0)  -->
<!DOCTYPE svg PUBLIC "-//W3C//DTD SVG 1.1//EN" "http://www.w3.org/Graphics/SVG/1.1/DTD/svg11.dtd">
<svg version="1.1" id="Layer_1" xmlns="http://www.w3.org/2000/svg" xmlns:xlink="http://www.w3.org/1999/xlink" x="0px" y="0px"
	 width="32px" height="32px" viewBox="0 0 32 32" enable-background="new 0 0 32 32" xml:space="preserve">
<circle fill="#FFFFFF" cx="16" cy="16" r="14.5"/>
<g>
	<circle fill="#CB4D60" cx="16" cy="16" r="11"/>
	<g>
		<polygon fill="#DFDFE5" points="14.92,14.047 17.809,14.045 15.483,15.758 16.377,18.506 14.029,16.822 11.693,18.523 
			12.567,15.77 10.23,14.072 13.119,14.055 14.01,11.307 		"/>
		<polygon fill="#DFDFE5" points="23.805,17.58 24.77,17.58 23.992,18.152 24.291,19.07 23.508,18.508 22.727,19.074 23.019,18.156 
			22.237,17.59 23.204,17.584 23.5,16.666 		"/>
		<polygon fill="#DFDFE5" points="21.281,20.438 22.193,20.752 21.271,21.037 21.253,22.004 20.697,21.215 19.773,21.496 
			20.351,20.723 19.799,19.932 20.711,20.242 21.293,19.473 		"/>
		<polygon fill="#DFDFE5" points="23.574,13.445 24.435,13.014 23.998,13.873 24.676,14.559 23.722,14.408 23.279,15.264 
			23.129,14.311 22.178,14.154 23.038,13.715 22.893,12.764 		"/>
		<polygon fill="#DFDFE5" points="20.684,10.734 21.309,9.998 21.242,10.961 22.133,11.326 21.197,11.561 21.125,12.523 
			20.613,11.705 19.676,11.932 20.296,11.193 19.788,10.373 		"/>
	</g>
</g>
</svg>
