<?xml version="1.0" encoding="utf-8"?>
<!-- Generator: Adobe Illustrator 15.0.2, SVG Export Plug-In . SVG Version: 6.00 Build 0)  -->
<!DOCTYPE svg PUBLIC "-//W3C//DTD SVG 1.1//EN" "http://www.w3.org/Graphics/SVG/1.1/DTD/svg11.dtd">
<svg version="1.1" id="Layer_1" xmlns="http://www.w3.org/2000/svg" xmlns:xlink="http://www.w3.org/1999/xlink" x="0px" y="0px"
	 width="32px" height="32px" viewBox="0 0 32 32" enable-background="new 0 0 32 32" xml:space="preserve">
<circle fill="#FFFFFF" cx="16" cy="16" r="14.5"/>
<g>
	<path fill="#373757" d="M27,16c0-6.076-4.928-11-11-11C9.924,5,5,9.924,5,16c0,6.075,4.924,11,11,11C22.072,27,27,22.075,27,16z"/>
	<path fill="#DFDFE5" d="M8.02,23.557l5.801-4.18v7.405C14.523,26.924,15.252,27,16,27c0.77,0,1.521-0.081,2.248-0.231v-7.601
		l5.873,4.232c0.705-0.773,1.299-1.646,1.762-2.597l-3.33-2.399h4.174C26.9,17.63,27,16.827,27,16c0-0.691-0.072-1.365-0.195-2.021
		h-4.559l3.695-2.662c-0.422-0.895-0.957-1.724-1.592-2.466l-6.102,4.397V5.231C17.521,5.081,16.77,5,16,5
		c-0.748,0-1.477,0.076-2.18,0.218v7.821L7.791,8.694c-0.65,0.729-1.203,1.545-1.641,2.43l3.961,2.854H5.193
		C5.07,14.635,5,15.309,5,16c0,0.827,0.098,1.63,0.271,2.404h4.533l-3.598,2.592C6.689,21.938,7.301,22.797,8.02,23.557z"/>
	<path fill="none" d="M27,16c0,6.075-4.928,11-11,11C9.924,27,5,22.075,5,16C5,9.924,9.924,5,16,5C22.072,5,27,9.924,27,16z"/>
	<path fill="#CB4D60" d="M5.125,17.581h9.518v9.327C15.088,26.963,15.539,27,16,27c0.482,0,0.955-0.042,1.424-0.103v-9.316h9.449
		C26.947,17.063,27,16.538,27,16c0-0.406-0.025-0.807-0.068-1.201h-9.508V5.103C16.955,5.042,16.482,5,16,5
		c-0.461,0-0.912,0.037-1.357,0.092v9.707H5.068C5.025,15.193,5,15.594,5,16C5,16.538,5.051,17.063,5.125,17.581z"/>
	<path fill="#CB4D60" d="M18.443,18.404l6.158,4.438c0.232-0.29,0.447-0.592,0.648-0.905l-4.904-3.533H18.443z"/>
	<path fill="#CB4D60" d="M20.055,13.979l5.268-3.797c-0.197-0.314-0.408-0.619-0.637-0.912l-6.533,4.709H20.055z"/>
	<path fill="#CB4D60" d="M13.914,18.404h-1.902l-5.154,3.714c0.207,0.309,0.43,0.606,0.666,0.893L13.914,18.404z"/>
	<path fill="#CB4D60" d="M12.303,13.979h1.902L7.438,9.101c-0.232,0.288-0.449,0.59-0.652,0.901L12.303,13.979z"/>
</g>
</svg>
