<svg width="33" height="32" viewBox="0 0 33 32" fill="none" xmlns="http://www.w3.org/2000/svg">
<path d="M22.329 0C19.9096 0 12.0883 0 9.67105 0C4.3331 0 0 4.31815 0 9.65184C0 12.084 0 19.9139 0 22.3482C0 27.6818 4.3331 32 9.67105 32C12.0883 32 19.9096 32 22.329 32C27.6669 32 32.0021 27.6818 32.0021 22.3482C32.0021 19.9117 32.0021 12.0819 32.0021 9.65184C32.0021 4.31815 27.6669 0 22.329 0ZM28.819 22.3972C28.819 25.9345 25.9431 28.7998 22.4101 28.7998H9.59211C6.05054 28.7998 3.17889 25.9345 3.17889 22.3972V9.60277C3.17889 6.07614 6.05054 3.20661 9.59211 3.20661H22.4101C25.9431 3.20661 28.819 6.07614 28.819 9.60277V22.3972Z" fill="white"/>
<path d="M24.3843 9.51181C25.3824 9.51181 26.1915 8.70271 26.1915 7.70464C26.1915 6.70656 25.3824 5.89746 24.3843 5.89746C23.3862 5.89746 22.5771 6.70656 22.5771 7.70464C22.5771 8.70271 23.3862 9.51181 24.3843 9.51181Z" fill="white"/>
<path d="M16.0004 7.85938C11.4963 7.85938 7.8457 11.5036 7.8457 15.9991C7.8457 20.5053 11.4963 24.1474 16.0004 24.1474C20.5044 24.1474 24.1572 20.5053 24.1572 15.9991C24.1594 11.5036 20.5066 7.85938 16.0004 7.85938ZM16.0004 20.9406C13.2715 20.9406 11.0504 18.7302 11.0504 15.9991C11.0504 13.2702 13.2715 11.0662 16.0004 11.0662C18.7335 11.0662 20.9418 13.2681 20.9418 15.9991C20.944 18.7302 18.7357 20.9406 16.0004 20.9406Z" fill="white"/>
</svg>
