<svg width="457" height="210" viewBox="0 0 457 210" fill="none" xmlns="http://www.w3.org/2000/svg">
<path d="M42.3497 91.5928C42.5484 90.8585 42.9583 90.6096 43.5845 90.8095C44.2987 91.0346 44.7212 91.3388 44.8218 91.7425C45.0204 92.0606 44.994 92.468 44.7413 92.9898C44.4885 93.5053 44.2471 93.9643 44.0434 94.3868C42.9093 97.0537 41.5928 99.5471 40.0965 101.805C38.6052 104.079 36.9241 106.4 35.0669 108.769C34.0333 110.122 32.9382 111.388 31.7273 112.567C30.5529 113.773 29.2276 114.821 27.7929 115.747C26.3444 116.562 24.74 117.137 22.9796 117.445C21.2407 117.75 19.5859 117.643 18.0456 117.138C15.8741 116.406 14.0622 115.121 12.6112 113.258C11.1702 111.411 10.0247 109.453 9.20493 107.376L7.98274 103.822C5.69178 97.3152 4.52492 90.5857 4.41176 83.6185C4.30111 76.6487 4.68461 69.7608 5.48682 62.9495C6.31922 55.8314 7.53511 48.8139 9.13325 41.8983C10.7339 34.9738 13.0286 28.2732 16.0175 21.7737C17.6772 18.3712 19.5583 15.0857 21.6732 11.9347C23.7906 8.78993 26.3985 6.19468 29.4979 4.13004C31.3576 2.88397 33.3141 1.90195 35.3699 1.18775C37.4472 0.464753 39.552 0.0913082 41.7185 0.0913082C44.6118 -0.216752 47.0423 0.256026 49.0026 1.48953C51.2646 2.94055 52.6641 5.11081 53.1872 7.99149C53.6952 10.8847 53.7417 13.6774 53.3368 16.3494C52.8288 20.6874 51.8656 24.8468 50.4813 28.8164C49.0717 32.791 47.5025 36.6889 45.7484 40.4938C41.809 49.2691 37.0787 57.3755 31.5098 64.8016C25.9282 72.2366 19.6991 79.2063 12.7696 85.7032C12.4553 86.01 12.1799 86.3244 11.9247 86.6387C11.6644 86.938 11.4921 87.2561 11.3764 87.5767C11.1702 87.9766 11.0696 88.3563 11.0696 88.7209C11.0696 89.0906 11.1212 89.4276 11.2218 89.7495C11.7348 93.2413 12.3585 96.7217 13.0764 100.19C13.8107 103.64 15.1863 106.806 17.2585 109.706C18.0959 110.842 19.1157 111.872 20.3605 112.797C21.6003 113.735 22.9293 114.085 24.3904 113.888C25.5246 113.776 26.5003 113.415 27.3327 112.797C28.145 112.179 28.9812 111.46 29.801 110.637C34.8544 105.276 39.0315 98.9259 42.3497 91.5928ZM13.2374 54.9047C12.5056 59.8563 11.8957 64.8343 11.3764 69.8362C10.8559 74.8469 10.7037 79.8237 10.9125 84.7903C14.8343 81.1615 18.6731 77.2724 22.4503 73.0853C26.2149 68.9057 29.5948 64.4923 32.5861 59.8563C35.2844 55.7258 37.7188 51.4997 39.9506 47.1579C42.1586 42.8187 44.1893 38.4442 46.0729 34.0044C47.3013 31.0181 48.4015 27.994 49.376 24.9512C50.3681 21.9108 51.0609 18.7736 51.4733 15.5786C51.6821 13.8245 51.7651 12.0944 51.711 10.3994C51.6544 8.69311 51.0597 7.11635 49.9255 5.65903C48.7838 4.42553 47.5553 3.58685 46.2049 3.11282C44.8695 2.65513 43.4763 2.4464 42.0379 2.49292C40.5894 2.56208 39.1748 2.85757 37.7791 3.44099C36.3771 3.99047 35.1197 4.63426 33.9843 5.36354C31.1866 7.32633 28.8692 9.68645 27.0171 12.4791C25.1574 15.2655 23.4901 18.2078 22.0617 21.3072C19.6991 26.6801 17.8495 32.1346 16.5632 37.7162C15.2857 43.2902 14.1691 49.0101 13.2374 54.9047Z" fill="white"/>
<path d="M7.09142 89.8174C5.4807 91.7538 3.59461 93.3092 1.40173 94.471C1.22192 94.5389 1.04337 94.6018 0.856019 94.6847C0.676212 94.7539 0.497663 94.6973 0.33043 94.5263C0.0802092 94.4898 -0.0430151 94.2208 0.0135675 93.6977C0.126733 93.2614 0.561789 92.8137 1.28856 92.3473C3.2262 91.1817 4.89853 89.6728 6.31561 87.8508" fill="white"/>
<path d="M151.681 123.88C147.528 123.88 145.203 121.944 144.685 118.069C144.174 115.995 144.285 114.432 145.073 113.405C145.591 111.334 146.874 109.581 148.959 108.163C151.027 106.733 153.089 106.28 155.168 106.8C156.724 106.8 158.031 107.825 159.053 109.916C160.092 111.988 160.349 114.057 159.841 116.113C159.306 121.305 156.6 123.88 151.681 123.88Z" fill="white"/>
<path d="M269.404 95.4806C266.495 95.9258 263.638 95.7975 260.829 95.0871C260.605 95.0179 260.404 94.9375 260.188 94.8746C259.966 94.7841 259.878 94.5892 259.878 94.3037C259.657 94.0988 259.768 93.7555 260.21 93.3468C260.655 93.0677 261.387 93.0124 262.379 93.1708C264.987 93.6574 267.607 93.6574 270.272 93.1582" fill="white"/>
<path d="M304.133 106.304C302.38 108.267 300.833 109.867 299.478 111.101C298.133 112.352 296.335 113.405 294.07 114.29C292.216 115.056 290.281 115.462 288.262 115.51C286.244 115.565 284.274 115.427 282.312 115.121C279.736 114.57 277.246 113.705 274.884 112.537C272.491 111.368 270.436 109.853 268.685 108.004C266.821 106.152 265.502 103.59 264.727 100.342C263.953 97.0902 263.99 94.2296 264.815 91.7412C265.222 89.8941 265.989 88.1086 267.136 86.4149C268.275 84.7124 269.586 83.3645 271.08 82.3699C272.583 81.398 274.077 80.8887 275.574 80.8271C277.06 80.7793 278.437 81.5287 279.673 83.0728C280.501 83.9077 281.139 85.1349 281.611 86.7871C282.072 88.4356 281.842 89.8401 280.91 90.968C280.392 91.8909 279.773 92.5736 279.066 92.9873C278.332 93.401 277.58 93.6852 276.799 93.8335C276.042 93.997 275.23 94.1416 274.407 94.3C273.587 94.4497 272.764 94.7313 271.929 95.1588L271.475 95.614L271.31 96.3886C271.423 97.0047 271.517 97.8773 271.635 99.0266C271.725 100.153 272.094 101.418 272.706 102.821C273.327 104.199 274.278 105.653 275.574 107.138C276.858 108.644 278.743 110.016 281.215 111.253C283.804 112.623 286.688 113.136 289.883 112.797C293.615 112.489 296.751 111.048 299.338 108.465C300.781 107.229 301.894 106.118 302.656 105.143C303.434 104.148 304.559 102.799 305.988 101.03C307.435 99.1699 308.711 97.529 309.77 96.0742C310.878 94.6383 311.875 93.0917 312.798 91.4219C313.323 91.4219 313.625 91.486 313.722 91.5916C314.239 91.8054 314.267 92.3461 313.816 93.2187C313.347 94.1014 313.015 94.6395 312.797 94.852C311.473 96.6979 310.037 98.6468 308.548 100.654C307.049 102.655 305.583 104.534 304.133 106.304ZM273.787 85.7033C272.955 86.7406 272.341 87.7226 271.928 88.643C271.515 89.5798 271.203 90.7265 271.014 92.0606C271.014 92.2631 271.308 92.3649 271.928 92.3649C273.072 92.16 274.097 91.9839 275.02 91.8217C275.965 91.6759 276.832 91.3376 277.665 90.8083L279.353 89.2667C279.561 88.4356 279.466 87.6723 279.065 86.9368C278.64 86.2251 278.083 85.4505 277.353 84.6282C276.74 84.2221 276.057 84.2221 275.344 84.6282C275.02 84.8281 274.774 84.9916 274.558 85.0947C274.362 85.199 274.097 85.3977 273.787 85.7033Z" fill="white"/>
<path d="M421.752 102.534C421.752 102.756 421.775 102.948 421.826 103.157C421.883 103.36 421.804 103.578 421.603 103.781C421.09 104.614 420.299 105.813 419.281 107.412C418.255 109.01 417.004 110.771 415.563 112.672C414.112 114.584 412.494 116.63 410.688 118.798C408.879 120.966 406.99 122.981 405.039 124.846C402.874 126.894 400.485 128.837 397.915 130.64C395.332 132.442 392.803 133.247 390.33 133.04C387.627 133.04 385.59 132.542 384.21 131.563C382.811 130.572 381.516 129.459 380.261 128.222C378.205 125.843 376.696 122.887 375.769 119.374C375.143 116.982 374.81 114.638 374.756 112.369C374.716 110.094 374.897 107.771 375.312 105.385C375.817 102.999 376.579 100.748 377.559 98.6243C378.522 96.5043 379.85 94.661 381.514 93.1043C382.212 92.3776 383.242 91.6634 384.596 90.9366C385.93 90.2048 387.492 89.7924 389.237 89.683C391.512 89.5937 393.319 90.3934 394.653 92.16C396.303 94.0122 396.817 96.1422 396.207 98.5099C395.996 99.126 395.642 99.4416 395.124 99.4416C394.707 99.4416 394.459 99.2341 394.346 98.8305C394.14 98.618 394.034 98.2068 394.034 97.5832L393.57 95.5739C393.178 94.3328 392.547 93.4614 391.723 92.922C391.404 92.7359 391.066 92.6014 390.703 92.5574C390.343 92.4933 390.07 92.4694 389.851 92.4694C388.619 92.4694 387.491 92.8265 386.452 93.552C385.212 94.5881 384.183 96.1975 383.35 98.3615C382.734 99.8037 382.265 101.457 381.956 103.314C381.654 105.173 381.384 107.133 381.199 109.198C381.088 112.195 381.167 114.822 381.42 117.09C381.665 119.372 382.211 121.414 383.036 123.274C383.241 123.694 383.539 124.236 383.901 124.906C384.252 125.575 384.756 126.254 385.362 126.922C385.986 127.592 386.715 128.217 387.534 128.79C388.346 129.336 389.289 129.687 390.329 129.789C390.427 129.789 390.563 129.811 390.705 129.849C390.864 129.923 391.044 129.942 391.257 129.942C394.034 129.942 396.64 128.934 399.079 126.922C401.493 124.906 403.691 122.872 405.644 120.792C408.333 118.23 410.808 115.414 413.077 112.366C415.342 109.326 417.512 106.101 419.578 102.699C419.787 102.165 419.988 101.893 420.204 101.833C420.418 101.785 420.624 101.77 420.828 101.77C421.239 101.769 421.542 102.026 421.752 102.534Z" fill="white"/>
<path d="M378.068 101.136C377.583 101.066 377.245 101.193 377.039 101.512L376.611 102.628C375.45 105.131 374.06 107.834 372.427 110.726C370.801 113.597 369.254 116.215 367.805 118.522C366.633 120.31 365.265 121.859 363.701 123.167C362.121 124.475 360.557 125.429 358.973 126.006C357.388 126.581 355.843 126.65 354.323 126.231C352.812 125.816 351.467 124.71 350.314 122.938C350.044 122.53 349.853 122.145 349.617 121.749L348.055 118.434C347.39 116.431 347.024 114.211 346.97 111.769C346.933 109.362 346.906 107.426 346.906 105.984C347.21 103.816 347.36 101.559 347.36 99.2415C347.36 96.9191 346.962 94.7828 346.139 92.825C345.412 90.651 344.002 89.3006 341.952 88.7813C338.963 87.9527 336.327 88.3274 334.066 89.8802C331.785 91.418 329.776 93.2878 328.027 95.4429C325.966 98.1325 324.441 100.916 323.462 103.816C322.48 106.71 321.371 109.636 320.148 112.631C320.148 112.848 320.043 112.932 319.816 112.932L319.672 113.094C319.466 113.094 319.188 112.932 318.886 112.631C318.587 111.189 318.343 109.718 318.191 108.209C318.031 106.729 318.043 105.154 318.262 103.497C318.355 102.056 318.375 100.602 318.343 99.161C318.286 97.7276 318.262 96.22 318.262 94.6835C318.139 93.7442 318.139 92.7458 318.262 91.6632C318.355 90.5793 318.139 89.5131 317.646 88.4845C317.02 87.7578 316.258 87.4082 315.328 87.4082C313.563 87.6018 312.527 88.4845 312.221 90.0286C311.506 94.3691 311.452 98.7272 312.068 103.116C312.684 107.503 313.257 111.864 313.777 116.204C313.973 117.323 314.207 118.5 314.47 119.674C314.72 120.867 315.17 122.074 315.771 123.324C315.771 123.522 315.885 123.733 316.088 123.932C316.307 124.142 316.506 124.388 316.704 124.709C317.019 125.013 317.426 125.105 317.954 124.931C318.472 124.78 318.828 124.559 319.029 124.235C319.137 124.031 319.266 123.865 319.424 123.693C319.571 123.547 319.664 123.359 319.664 123.16C320.996 118.827 322.356 114.548 323.758 110.303C325.14 106.089 327.144 101.791 329.716 97.4522C330.121 96.8424 330.787 96.0176 331.734 94.9764C332.651 93.9479 333.646 93.1218 334.735 92.5145C335.827 91.8908 336.943 91.6003 338.07 91.6607C339.214 91.7097 340.187 92.5145 341.002 94.0573C341.935 95.8151 342.301 97.8722 342.085 100.242C341.891 102.624 341.739 104.836 341.638 106.9C341.523 110.723 341.899 114.236 342.731 117.432C343.546 120.635 344.792 123.158 346.454 125.01C346.56 125.142 346.678 125.214 346.795 125.33C347.08 125.682 347.397 126.039 347.795 126.377C350.423 128.588 352.957 129.718 355.419 129.785C357.885 129.826 360.228 129.181 362.421 127.813C364.64 126.443 366.659 124.52 368.496 122.063C370.328 119.59 372.035 116.932 373.624 114.106C374.552 112.336 375.436 110.511 376.259 108.668C377.082 106.837 377.922 104.989 378.801 103.085C378.899 102.774 378.958 102.591 378.958 102.532C378.958 102.498 378.958 102.301 378.958 101.981C378.866 101.47 378.56 101.172 378.068 101.136Z" fill="white"/>
<path d="M456.312 174.456C455.555 169.535 454.532 164.644 453.254 159.75C451.977 154.828 450.614 150.246 449.212 145.955C447.78 141.677 446.671 138.353 445.852 135.974L442.912 124.984C442.601 123.645 442.291 122.369 441.984 121.12C441.678 119.877 441.327 118.584 440.904 117.242C440.592 115.498 440.249 113.811 439.9 112.212C439.534 110.62 439.193 108.981 438.88 107.337C438.256 105.476 438.556 103.616 439.81 101.768C441.773 99.1788 443.168 96.0869 443.997 92.4681C444.309 90.8235 443.57 89.5937 441.82 88.7601C439.545 88.0509 437.661 88.5941 436.187 90.4588C433.435 94.1807 432.174 98.5099 432.389 103.467C432.593 104.496 432.73 105.477 432.782 106.403C432.828 107.338 432.545 108.211 431.908 109.048C431.397 109.556 430.962 110.089 430.599 110.593C430.248 111.104 429.852 111.627 429.432 112.148C428.2 113.479 427.278 113.92 426.649 113.46C426.038 112.982 425.578 112.168 425.264 110.979C424.942 109.786 424.8 108.467 424.8 107.032C424.8 105.583 424.844 104.496 424.942 103.782C425.15 102.965 425.04 102.1 424.631 101.216C424.238 100.352 423.566 100.024 422.621 100.216C421.899 100.318 421.085 100.865 420.15 101.832C419.222 102.824 418.75 103.617 418.75 104.239V105.476C418.75 107.545 419.124 109.707 419.838 111.989C420.565 114.252 422.021 115.801 424.18 116.63C425.73 117.039 427.06 116.78 428.197 115.857C428.921 115.349 429.585 114.768 430.215 114.151C430.831 113.537 431.452 112.962 432.084 112.444C432.793 112.236 433.282 112.402 433.488 112.916C434.456 115.588 435.138 118.339 435.56 121.122C436 123.894 436.641 126.646 437.48 129.318L438.21 132.457L439.359 136.902C440.791 141.036 442.165 145.158 443.456 149.298C444.742 153.431 445.95 157.651 447.081 161.983C447.704 164.454 448.407 167.048 449.175 169.732C449.936 172.4 450.61 175.149 451.196 177.928C451.758 180.736 452.137 183.508 452.35 186.293C452.552 189.081 452.443 191.769 452.033 194.348C451.53 197.549 450.145 200.358 447.934 202.773C445.711 205.207 442.954 206.623 439.658 207.045C439.568 207.045 439.496 207.075 439.416 207.088C438.269 207.179 437.181 207.075 436.161 206.727C433.44 205.756 431.204 204.249 429.403 202.228C429.143 201.926 428.919 201.617 428.661 201.312L428.651 201.195C427.332 199.867 426.316 198.36 425.574 196.66C424.825 194.942 424.339 193.167 424.101 191.328C423.863 189.464 423.995 187.63 424.503 185.8C424.686 185.295 424.905 184.798 425.137 184.305C425.374 183.804 425.77 183.507 426.316 183.38C427.205 183.208 428.048 183.498 428.89 184.266C429.647 184.903 430.503 185.462 431.498 185.892C432.507 186.307 433.429 186.473 434.3 186.4C436.078 186.473 437.331 185.854 438.021 184.53C438.711 183.208 438.397 182.021 437.058 180.946C436.512 180.444 435.829 180.086 435.012 179.902C434.19 179.718 433.36 179.585 432.515 179.511C431.693 179.424 430.815 179.36 429.91 179.327C429.021 179.295 428.24 179.115 427.542 178.792C426.947 178.479 426.405 178.155 425.909 177.816C425.422 177.479 424.858 177.085 424.26 176.667C422.46 175.009 420.709 173.4 418.994 171.848C417.273 170.302 415.467 168.787 413.574 167.317C412.709 166.751 411.757 166.22 410.724 165.741C409.676 165.265 408.645 164.93 407.599 164.766C406.575 164.607 405.553 164.652 404.551 164.919C403.569 165.185 402.657 165.784 401.874 166.732C400.941 167.954 400.572 169.231 400.786 170.541C400.655 171.371 400.98 171.945 401.786 172.288C402.577 172.629 403.21 172.519 403.659 171.946C404.121 171.384 404.455 170.85 404.646 170.353C404.948 169.769 405.133 169.236 405.213 168.768C405.277 168.306 405.44 167.987 405.677 167.805C406.51 167.315 407.381 167.116 408.241 167.259C409.128 167.397 409.944 167.699 410.741 168.137C412.941 169.662 415.137 171.254 417.306 172.93C419.477 174.607 421.523 176.453 423.428 178.441C423.979 179.075 424.236 179.526 424.182 179.842C424.396 180.507 424.293 181.095 423.914 181.549C423.51 182.027 423.214 182.623 422.994 183.321C421.747 186.42 421.292 189.296 421.606 191.947C421.945 194.602 422.748 196.999 424.002 199.109C425.169 201.031 426.657 202.683 428.377 204.142C428.716 204.475 429.072 204.826 429.448 205.153C432.304 207.947 435.558 209.238 439.196 209.019C439.429 209.037 439.672 209.053 439.945 209.037C442.604 208.749 444.918 207.863 446.848 206.422C448.796 204.973 450.458 203.223 451.844 201.154C453.232 199.083 454.297 196.808 455.078 194.344C455.843 191.862 456.361 189.435 456.674 187.069C457.209 183.547 457.082 179.341 456.312 174.456ZM437.646 98.3615C437.646 98.1628 437.62 97.9164 437.58 97.6611C437.516 97.3971 437.448 97.0614 437.343 96.6502C437.542 96.0328 437.707 95.3853 437.802 94.7163C437.893 94.0612 438.044 93.3584 438.274 92.6253L439.192 91.3956C439.51 91.08 439.968 90.9857 440.591 91.08C440.903 91.08 441.156 91.2635 441.352 91.6219C441.566 91.984 441.61 92.2682 441.514 92.4681C441.197 94.8521 440.372 96.8614 439.025 98.5099C438.937 98.9261 438.672 99.0292 438.273 98.8305C438.152 98.8305 437.951 98.6721 437.646 98.3615ZM430.448 181.635C431.121 181.322 431.932 181.267 432.862 181.466C433.774 181.68 434.46 182.061 434.888 182.671C435.362 183.069 435.457 183.398 435.222 183.674C434.952 183.956 434.552 184.054 434.053 183.972C433.414 183.982 432.739 183.816 432.059 183.497C431.352 183.172 430.796 182.72 430.35 182.099L430.448 181.635Z" fill="white"/>
<path d="M374.067 153.182C372.616 149.31 370.157 146.649 366.672 145.238C365.272 144.824 364.044 144.648 363.005 144.721C362.263 144.777 361.755 144.866 361.454 145C360.724 145.266 360.557 145.648 360.897 146.15C360.971 146.778 361.288 147.064 361.92 147.016L362.077 147.006C362.276 146.882 362.585 146.809 363.005 146.777C364.363 146.677 365.756 146.977 367.177 147.71C368.818 148.736 370.156 150.303 371.171 152.428C372.688 155.652 372.956 158.662 372.011 161.456C371.068 164.035 369.385 165.964 367.018 167.247C364.644 168.519 362.575 169.384 360.819 169.844C359.581 170.139 358.309 170.401 357.005 170.603C355.709 170.81 354.38 170.957 353.012 171.055C350.811 171.23 348.48 171.279 346.01 171.205C343.521 171.144 340.733 170.884 337.665 170.503C330.961 169.66 324.367 168.481 317.888 166.973C311.402 165.487 305.252 163.913 299.449 162.246C292.234 160.29 285.129 158.13 278.11 155.778C271.081 153.426 264.117 151.047 257.193 148.653C256.013 148.209 254.762 147.772 253.441 147.362C252.179 146.936 250.883 146.508 249.579 146.077C248.284 145.662 247.28 145.262 246.558 144.899C245.856 144.542 245.379 144.099 245.119 143.585C244.876 143.087 244.885 142.457 245.144 141.694C245.392 140.945 245.801 139.924 246.323 138.615C246.772 137.432 247.202 136.284 247.645 135.208C248.087 134.133 248.465 132.999 248.808 131.819L250.994 121.226C251.044 120.713 251.08 120.204 251.129 119.701L251.142 119.714C251.471 117.861 251.652 115.991 251.736 114.133C251.822 113.328 251.96 112.499 252.043 111.712C252.043 111.712 252.755 96.4715 252.595 94.2271C252.49 93.3004 252.415 91.9487 252.359 90.1972C252.297 88.4343 252.285 86.6614 252.285 84.8419C252.285 83.0489 252.285 81.4244 252.285 79.9821C252.285 78.5324 252.285 77.5516 252.285 77.0285C252.378 75.9057 252.051 75.199 251.282 74.9488C250.507 74.6847 249.912 74.5615 249.499 74.5615C249.185 74.5615 248.778 74.6847 248.267 74.9488C247.749 75.199 247.432 75.5423 247.329 75.9409C247.329 77.0901 247.246 78.3752 247.093 79.8212C246.941 81.2735 246.807 82.2366 246.709 82.7672C246.614 82.7672 246.557 82.8955 246.557 83.1507C246.557 83.4161 246.41 83.4312 246.106 83.23C245.985 83.23 245.869 83.1734 245.786 83.0715C244.645 81.5262 243.249 80.6322 241.597 80.3594C239.948 80.1116 238.714 79.9821 237.879 79.9821C236.545 79.9821 235.029 80.4687 233.318 81.4545C231.622 82.4353 230.46 83.4814 229.848 84.6269C229.316 85.7573 228.83 86.8965 228.364 88.0332C227.897 89.1648 227.571 90.3531 227.362 91.5891C226.939 93.6537 226.939 95.6756 227.362 97.6258C227.772 99.5836 228.493 101.453 229.513 103.194C230.356 104.642 231.583 105.578 233.234 105.994C234.886 106.399 236.444 106.097 237.877 105.068C240.776 102.797 242.876 100.002 244.233 96.6966C244.437 95.8818 244.718 95.0494 245.083 94.2284C245.444 93.4023 245.786 92.5271 246.105 91.5904C246.105 91.3942 246.166 91.2609 246.321 91.1918C246.47 91.154 246.612 91.232 246.709 91.4219C246.913 91.4219 247.016 91.5413 247.016 91.7412C247.534 95.3537 247.686 96.8374 247.485 100.451L247.593 103.381L247.568 103.331C247.177 109.374 246.589 115.252 245.759 120.999C244.931 126.749 243.355 132.454 241.046 138.105C240.175 140.383 238.632 141.597 236.421 141.754C236.218 141.778 235.581 141.724 234.513 141.597C232.479 141.33 230.715 140.85 229.186 140.18C227.654 139.491 226.009 138.68 224.257 137.758C219.972 135.629 215.276 133.727 210.132 132.051C204.982 130.366 199.952 129.708 195.017 130.089C192.927 130.25 191.004 130.719 189.284 131.502C186.504 132.588 184.313 134.123 182.675 136.099C179.736 139.154 178.353 143.001 178.481 147.622C178.612 152.038 180.032 155.975 182.707 159.457C184.008 161.138 185.539 162.604 187.327 163.832C189.107 165.072 191.084 166.126 193.268 167.012C197.381 168.389 201.743 168.898 206.36 168.541C210.444 168.23 214.233 167.313 217.701 165.775C221.473 164.112 224.965 162.004 228.134 159.457C231.308 156.889 234.433 154.226 237.498 151.467L241.499 147.86C242.292 147.264 243.009 146.944 243.64 146.9C243.834 146.879 244.008 146.898 244.129 146.937C244.23 146.975 244.389 147.004 244.603 146.975L245.232 147.097C245.868 147.255 246.523 147.417 247.167 147.576C247.816 147.74 248.458 147.958 249.121 148.222C256.693 151.007 264.778 153.892 273.386 156.853C281.969 159.835 290.84 162.488 299.958 164.856C304.905 166.169 310.082 167.463 315.499 168.797C320.898 170.128 326.449 171.202 332.105 172.037C335.486 172.516 339.158 172.987 343.097 173.484C347.021 173.971 350.933 174.056 354.797 173.768C356.389 173.656 357.874 173.43 359.335 173.099C360.778 172.788 362.177 172.418 363.512 171.993C368.23 170.376 371.608 167.738 373.643 164.112C375.398 160.826 375.525 157.191 374.067 153.182ZM245.011 88.4884C244.897 88.8065 244.797 89.0668 244.691 89.268C244.197 90.5065 243.717 91.7224 243.302 92.9156C242.879 94.1014 242.487 95.2632 242.073 96.3911C241.661 97.3153 241.035 98.4142 240.202 99.6465C239.379 100.894 238.922 101.507 238.817 101.507C237.881 102.424 236.962 102.799 236.021 102.575C235.101 102.374 234.378 101.71 233.865 100.581C233.342 99.737 232.991 98.8178 232.78 97.7893C232.576 96.7532 232.478 95.7762 232.478 94.852C232.478 93.9203 232.483 93.0665 232.555 92.292C232.601 91.5174 232.62 91.0333 232.62 90.8083C232.828 89.791 233.108 88.8228 233.485 87.9452C233.836 87.0826 234.227 86.1672 234.637 85.2519C234.851 84.6294 235.183 84.1391 235.652 83.7694C236.116 83.4173 236.654 83.0728 237.273 82.7685C238.512 82.2379 239.824 82.2844 241.217 82.8427C242.609 83.4173 243.494 83.9442 243.93 84.4723C244.132 84.7891 244.487 85.4518 245.011 86.4803C245.111 86.596 245.158 86.938 245.158 87.5768C245.158 87.8748 245.111 88.1828 245.011 88.4884ZM234.012 149.061C232.691 150.944 231.276 152.681 229.758 154.278C228.248 155.864 226.806 157.25 225.412 158.406C219.975 163.03 213.812 165.607 206.909 166.13C204.289 166.337 201.588 166.22 198.832 165.795C193.942 165.233 189.79 163.333 186.381 160.118C184.472 158.266 182.967 156.037 181.921 153.43C180.882 150.835 180.423 148.248 180.558 145.726C180.769 141.72 182.312 138.53 185.188 136.21C187.762 134.007 191.243 132.748 195.639 132.412C198.687 132.185 202.225 132.489 206.285 133.336C210.143 134.194 213.891 135.405 217.545 136.978C221.199 138.529 224.755 140.142 228.248 141.754C228.906 142.142 229.589 142.467 230.297 142.786C231.008 143.096 231.743 143.443 232.51 143.805C233.718 144.447 234.452 145.18 234.735 146.009C234.916 146.939 234.676 147.96 234.012 149.061Z" fill="white"/>
<path d="M193.401 94.6773C193.733 93.6563 194.533 91.2987 195.015 89.5936C195.501 87.8748 196.056 86.1258 196.633 84.3579C196.832 83.8662 197.078 83.3897 197.372 82.898C197.666 82.3901 198.062 82.0644 198.563 81.8494C199.339 81.6583 199.988 81.8381 200.542 82.3674C201.073 82.9182 201.454 83.5808 201.64 84.3579C201.64 85.0406 201.539 85.7033 201.354 86.3496C201.148 86.9971 200.957 87.6396 200.752 88.3362C200.067 90.1004 199.454 91.9475 198.912 93.8662C198.379 95.7775 198.06 97.6749 197.957 99.5245C197.859 100.894 198.122 102.599 198.768 104.614C199.402 106.62 200.656 109.045 202.527 111.897C203.599 113.562 204.87 114.594 206.277 114.992C207.704 115.375 209.148 115.305 210.626 114.763C212.09 114.233 213.571 113.336 215.035 112.103C216.511 110.882 217.776 109.44 218.869 107.769C220.242 105.614 221.688 103.182 223.22 100.481C224.741 97.7893 226.029 95.2645 227.098 92.9006L227.526 91.8758C227.708 91.5665 228.034 91.4495 228.491 91.4998C228.952 91.5552 229.233 91.823 229.329 92.3083C229.329 92.6013 229.329 92.7723 229.329 92.8264C229.329 92.8855 229.262 93.0439 229.172 93.3469C228.363 95.1136 227.551 96.8576 226.785 98.5689C226.018 100.288 225.208 101.984 224.312 103.641C222.831 106.304 221.245 108.77 219.527 111.092C217.816 113.396 215.93 115.184 213.859 116.453C211.798 117.734 209.619 118.351 207.312 118.295C204.991 118.247 202.626 117.197 200.17 115.127C198.001 113.166 196.415 111.241 195.386 109.323C194.344 107.401 193.634 105.656 193.249 104.089C193.156 103.797 193.067 103.466 193.025 103.128C193.028 103.128 192.163 97.915 193.401 94.6773Z" fill="white"/>
<path d="M193.069 95.404C192.745 96.1685 192.515 96.6501 192.433 96.8563C192.042 97.5302 191.724 98.1111 191.472 98.6003C191.235 99.0743 190.87 99.61 190.39 100.191C189.725 101.262 188.844 102.359 187.777 103.533C186.713 104.684 185.543 105.655 184.296 106.429C183.047 107.215 181.738 107.667 180.375 107.812C179.019 107.951 177.714 107.498 176.46 106.429C174.229 104.593 173.037 102.419 172.902 99.9004C172.762 97.3806 173.074 94.8784 173.843 92.3598C174.332 90.9139 174.412 90.4298 175.043 89.415C175.671 88.394 176.509 87.3479 177.566 86.2766C178.074 85.6114 178.688 85.0846 179.462 84.691C180.243 84.3025 181.008 84.0057 181.797 83.8083C182.946 83.5229 184.11 83.3318 185.265 83.2337C186.421 83.1407 187.534 83.2337 188.609 83.5229C190.058 83.8083 190.974 84.3025 191.362 84.9777C191.558 85.1739 191.663 85.4656 191.663 85.8516C191.663 86.2364 191.509 86.4338 191.207 86.4338L189.908 86.1408C187.973 85.5561 186.499 85.5121 185.49 85.9849C184.472 86.4816 183.475 87.2976 182.511 88.4632C181.145 90.1016 180.756 91.3967 180.375 93.7996C180.178 95.2644 180.085 96.8387 180.085 98.516C180.085 100.216 180.326 101.832 180.812 103.382C181.392 104.534 182.198 104.901 183.206 104.472C184.221 104.04 185.265 103.259 186.323 102.151C187.382 101.031 188.352 99.8526 189.229 98.6003C190.103 97.3404 190.634 96.4753 190.826 95.9736C191.692 94.3377 192.565 92.722 193.441 91.1188C194.308 89.5257 195.121 87.9099 195.905 86.2653C196.091 85.5813 196.391 85.0406 196.789 84.6571C197.361 83.9856 198.124 83.8498 199.095 84.2321" fill="white"/>
<path d="M68.6467 58.0758C71.0433 58.2255 73.2412 58.3839 75.3046 58.536C77.3705 58.6806 78.7675 58.8743 79.4842 59.0742C80.6259 59.5973 81.193 60.2675 81.193 61.0873C80.9893 65.4215 80.6674 69.4766 80.2575 73.2337C79.8425 77.0058 79.4842 80.5492 79.1837 83.8372C78.6681 88.1765 78.4343 92.517 78.4883 96.8449C78.5374 101.184 78.9775 105.516 79.7897 109.846C80.1996 112.012 80.6661 114.291 81.1917 116.679C81.7098 119.049 82.3435 121.359 83.1369 123.625C83.8976 125.899 84.8834 128.073 86.0716 130.136C87.2574 132.196 88.7184 134.008 90.4725 135.546C92.7584 137.41 95.0947 138.418 97.5202 138.569C99.9444 138.717 102.344 137.934 104.728 136.182C106.469 134.935 108.394 133.386 110.441 131.53C112.507 129.658 114.472 127.609 116.341 125.335C119.317 121.717 121.881 118.018 123.983 114.187C126.107 110.381 128.397 105.986 130.874 101.033C131.082 100.714 131.358 100.158 131.731 99.3346C132.09 98.4946 132.478 97.6132 132.898 96.6853C133.295 95.7623 133.64 94.9375 133.905 94.2082C134.166 93.4978 134.296 93.0351 134.296 92.815C134.492 92.3146 134.425 91.8456 134.051 91.4256C133.69 91.0182 133.201 91.0748 132.595 91.5752C128.975 99.6426 125.767 106.008 122.987 110.706C120.212 115.403 118.189 118.63 116.953 120.386C116.234 121.306 115.345 122.504 114.32 123.934C113.277 125.389 112.13 126.801 110.85 128.197C109.548 129.604 108.18 130.856 106.721 131.992C105.282 133.127 103.793 133.852 102.254 134.159C99.6565 134.773 97.4749 134.212 95.658 132.461C93.8436 130.7 92.3624 128.482 91.1767 125.809C89.9909 123.118 89.107 120.352 88.5412 117.529C87.9741 114.684 87.5755 112.481 87.3869 110.935C86.8651 107.022 86.5293 102.844 86.3722 98.3953C86.215 93.968 86.2917 89.7759 86.6148 85.8541C86.816 83.9957 87.0738 82.1989 87.3856 80.4435C87.3856 80.4435 89.2918 67.2057 89.3899 66.1194C89.498 65.0418 89.6037 64.0346 89.7118 63.1029C89.7998 62.1812 89.9004 61.6129 90.0136 61.4117C90.426 60.7704 90.846 60.4133 91.2534 60.3115L100.848 60.0814C101.153 60.0814 102.3 60.1254 104.338 60.2323C106.35 60.3329 108.641 60.5215 111.212 60.7704C113.798 61.0307 137.84 64.0145 140.46 64.3112C143.103 64.608 145.141 64.9865 146.571 65.4064C147.097 65.6189 147.401 65.4794 147.517 65.0078C147.617 64.5602 147.617 64.1666 147.517 63.8586C147.517 63.2286 147.293 62.7785 146.9 62.4629C146.478 62.146 146.011 61.8971 145.496 61.6946C144.885 61.5978 143.512 61.4117 141.417 61.1439C139.283 60.8924 115.545 57.9426 113.087 57.6785C110.592 57.4195 108.248 57.2007 106.021 56.9719C103.818 56.7795 102.281 56.6638 101.471 56.6638C101.257 56.6638 100.973 56.6437 100.621 56.5959C100.621 56.5959 92.2215 56.5959 91.4118 54.7375C91.1905 54.017 91.3062 52.7307 91.4118 51.8015C91.4998 50.876 91.6155 50.1618 91.7136 49.6337C91.9298 48.907 92.1084 48.1626 92.2517 47.3855C92.2832 47.2409 92.4089 46.626 92.4089 46.626C92.7836 44.6017 93.02 43.2374 93.1608 42.5106C93.5833 40.9452 93.284 39.9116 92.2693 39.3533C91.2697 38.8051 90.4599 38.4668 89.8828 38.365C89.4603 38.2732 88.8492 38.365 88.0558 38.5951C87.2825 38.8252 86.7594 39.2188 86.523 39.7695C86.2313 41.3551 85.7913 43.1305 85.2191 45.1046C85.2191 45.1172 85.2191 45.1373 85.2116 45.1562C84.9048 46.0753 84.6596 47.0121 84.4458 47.9174C84.2321 48.8667 84.0259 49.7318 83.8222 50.5667L82.4277 54.4344C81.9122 55.2668 81.2961 55.6692 80.5681 55.6692C80.4675 55.6692 79.2792 55.6227 77.0147 55.5171C74.7451 55.4165 71.8292 55.2895 68.2645 55.1348L66.7707 55.1172C65.3222 55.1172 63.8649 55.2128 62.4289 55.4353C61.9084 55.4353 61.4595 55.5824 61.0395 55.8867C60.3203 56.396 60.1845 56.8687 60.651 57.2761C61.1099 57.6949 61.6204 57.9539 62.1272 58.0469C63.4512 58.1538 65.0418 58.1777 66.8424 58.1173L68.6467 58.0758Z" fill="white"/>
<path d="M46.8952 81.8959C47.8307 81.7852 48.5801 81.3715 49.2164 80.6498C49.8426 79.9394 50.1883 79.1573 50.304 78.3286C50.4046 77.5101 50.2474 76.7833 49.8426 76.1609C49.4352 75.5448 48.5801 75.2908 47.3504 75.3813C45.9208 75.3813 44.9337 76.0301 44.4307 77.324C43.9026 78.6216 43.9026 79.7256 44.4307 80.6498C45.0406 81.5828 45.8667 82.0027 46.8952 81.8959Z" fill="white"/>
<path d="M81.6947 60.1643C81.3363 62.7658 80.9138 65.3347 80.4222 67.8859C79.4842 72.659 78.3802 77.3604 77.1115 82.0039C76.23 85.121 75.2279 88.1777 74.1126 91.1829C73.0275 94.1817 71.6267 97.0637 69.9921 99.8463C69.0541 101.334 68.516 102.409 66.9643 104.059C64.857 106.045 59.7029 107.034 58.0419 106.507C56.8097 106.307 55.6202 105.916 54.4885 105.337C53.3544 104.779 52.4189 103.928 51.6959 102.801C50.4548 101.146 49.8865 99.3169 49.9959 97.2963C50.0864 95.2819 50.0474 93.2563 49.8412 91.1929C49.64 89.7519 48.6555 88.8655 46.8939 88.5474C46.0741 88.4392 45.248 88.5474 44.4281 88.8667C43.5932 89.1585 42.9696 89.6853 42.5597 90.407C42.1447 91.1388 41.8505 91.9084 41.7172 92.7382C41.5701 93.5543 41.4771 94.3414 41.4771 95.0443C41.4771 96.8134 41.5701 98.5134 41.7172 100.177C41.8492 101.81 42.5157 103.363 43.6297 104.818C44.7764 106.567 46.2815 107.797 48.1261 108.529C49.9946 109.255 51.9058 109.766 53.8699 110.068C56.9593 110.387 64.017 109.485 66.6399 106.86C68.8404 104.903 70.5844 102.734 71.9071 100.377C74.2056 96.6538 75.9987 92.8049 77.3667 88.8102C78.7222 84.8205 79.8916 80.7842 80.8635 76.6977C82.2441 71.1904 83.2475 65.6754 83.8813 60.1681H81.6947V60.1643Z" fill="white"/>
</svg>
