<svg width="45" height="38" viewBox="0 0 45 38" fill="none" xmlns="http://www.w3.org/2000/svg">
<path d="M42.8807 24.2978C42.8807 18.5672 37.3148 13.9217 30.4494 13.9217C23.5852 13.9217 18.0203 18.5672 18.0203 24.2978C18.0203 30.0253 23.5852 34.6697 30.4494 34.6697C32.114 34.6697 33.7016 34.3953 35.1519 33.9002L38.7809 35.8889L38.1529 32.4351C41.0303 30.533 42.8807 27.5954 42.8807 24.2978ZM26.2515 22.6871C25.292 22.6871 24.514 21.9102 24.514 20.9496C24.514 19.9912 25.2909 19.2132 26.2515 19.2132C27.2099 19.2132 27.9879 19.9901 27.9879 20.9496C27.9879 21.9102 27.2099 22.6871 26.2515 22.6871ZM34.6674 22.6871C33.709 22.6871 32.93 21.9102 32.93 20.9496C32.93 19.9912 33.7079 19.2132 34.6674 19.2132C35.6269 19.2132 36.4038 19.9901 36.4038 20.9496C36.4028 21.9102 35.6259 22.6871 34.6674 22.6871Z" fill="#CB4D60"/>
<path d="M16.4951 2.11111C8.18789 2.11111 1.45239 7.73511 1.45239 14.6669C1.45239 18.6474 3.67328 22.192 7.13339 24.4931L6.2425 28.5391L10.8996 26.3245C12.6297 26.9008 14.517 27.2249 16.4941 27.2249C16.6767 27.2249 16.8582 27.2196 17.0398 27.2122C16.7495 26.2802 16.5943 25.3017 16.5943 24.2978C16.5943 17.9107 22.7968 12.7321 30.4485 12.7321C30.7578 12.7321 31.0618 12.7448 31.3658 12.7606C30.2659 6.73128 24.0276 2.11111 16.4951 2.11111ZM11.4992 12.8936C10.3423 12.8936 9.40284 11.9563 9.40284 10.7994C9.40284 9.64039 10.3423 8.70306 11.4992 8.70306C12.6582 8.70306 13.5955 9.64039 13.5955 10.7994C13.5955 11.9563 12.6582 12.8936 11.4992 12.8936ZM21.4488 12.8936C20.2898 12.8936 19.3525 11.9563 19.3525 10.7994C19.3525 9.64039 20.2909 8.70306 21.4488 8.70306C22.6057 8.70306 23.5441 9.64039 23.5441 10.7994C23.5452 11.9563 22.6068 12.8936 21.4488 12.8936Z" fill="#CB4D60"/>
</svg>
