<?xml version="1.0" encoding="utf-8"?>
<!-- Generator: Adobe Illustrator 15.0.2, SVG Export Plug-In . SVG Version: 6.00 Build 0)  -->
<!DOCTYPE svg PUBLIC "-//W3C//DTD SVG 1.1//EN" "http://www.w3.org/Graphics/SVG/1.1/DTD/svg11.dtd">
<svg version="1.1" id="Layer_1" xmlns="http://www.w3.org/2000/svg" xmlns:xlink="http://www.w3.org/1999/xlink" x="0px" y="0px"
	 width="32px" height="32px" viewBox="0 0 32 32" enable-background="new 0 0 32 32" xml:space="preserve">
<circle fill="#FFFFFF" cx="16" cy="16" r="14.5"/>
<g>
	<path fill="#CB4D60" d="M16,27c4.755,0,8.795-3.024,10.33-7.25H5.67C7.204,23.976,11.243,27,16,27z"/>
	<path fill="#373757" d="M5.67,19.75h20.66C26.756,18.578,27,17.319,27,16s-0.244-2.578-0.67-3.75H5.669C5.244,13.422,5,14.681,5,16
		S5.244,18.578,5.67,19.75z"/>
	<path fill="#DFDFE5" d="M16,5c-4.757,0-8.796,3.023-10.331,7.25H26.33C24.795,8.023,20.755,5,16,5z"/>
</g>
</svg>
