<svg display="none" xmlns="http://www.w3.org/2000/svg">
    <symbol id="message" viewBox="0 0 45 38">
        <path d="M42.881 24.2978C42.881 18.5672 37.315 13.9217 30.4497 13.9217C23.5854 13.9217 18.0205 18.5672 18.0205 24.2978C18.0205 30.0253 23.5854 34.6697 30.4497 34.6697C32.1143 34.6697 33.7018 34.3953 35.1522 33.9002L38.7812 35.8889L38.1531 32.4351C41.0306 30.533 42.881 27.5954 42.881 24.2978ZM26.2517 22.6871C25.2922 22.6871 24.5143 21.9102 24.5143 20.9496C24.5143 19.9912 25.2912 19.2132 26.2517 19.2132C27.2102 19.2132 27.9881 19.9901 27.9881 20.9496C27.9881 21.9102 27.2102 22.6871 26.2517 22.6871ZM34.6677 22.6871C33.7092 22.6871 32.9302 21.9102 32.9302 20.9496C32.9302 19.9912 33.7082 19.2132 34.6677 19.2132C35.6272 19.2132 36.4041 19.9901 36.4041 20.9496C36.403 21.9102 35.6261 22.6871 34.6677 22.6871Z"/>
        <path d="M16.4951 2.11111C8.18789 2.11111 1.45239 7.73511 1.45239 14.6669C1.45239 18.6474 3.67328 22.192 7.13339 24.4931L6.2425 28.5391L10.8996 26.3245C12.6297 26.9008 14.517 27.2249 16.4941 27.2249C16.6767 27.2249 16.8582 27.2196 17.0398 27.2122C16.7495 26.2802 16.5943 25.3017 16.5943 24.2978C16.5943 17.9107 22.7968 12.7321 30.4485 12.7321C30.7578 12.7321 31.0618 12.7448 31.3658 12.7606C30.2659 6.73128 24.0276 2.11111 16.4951 2.11111ZM11.4992 12.8936C10.3423 12.8936 9.40284 11.9563 9.40284 10.7994C9.40284 9.64039 10.3423 8.70306 11.4992 8.70306C12.6582 8.70306 13.5955 9.64039 13.5955 10.7994C13.5955 11.9563 12.6582 12.8936 11.4992 12.8936ZM21.4488 12.8936C20.2898 12.8936 19.3525 11.9563 19.3525 10.7994C19.3525 9.64039 20.2909 8.70306 21.4488 8.70306C22.6057 8.70306 23.5441 9.64039 23.5441 10.7994C23.5452 11.9563 22.6068 12.8936 21.4488 12.8936Z"/>
    </symbol>

    <symbol id="presentation" viewBox="0 0 15 20">
        <path d="M14 1.27344H1V19.4029H14V1.27344Z" stroke-miterlimit="10" stroke-linecap="round" stroke-linejoin="round"/>
        <path d="M13.9508 6.84697H8.46582V1.32251L13.9508 6.84697Z"  stroke-miterlimit="10" stroke-linecap="round" stroke-linejoin="round"/>
    </symbol>

    <symbol id="book" viewBox="0 0 21 23">
        <path d="M18.102 5.59961H20V21.7981H1V5.59961H10.444" stroke-miterlimit="10" stroke-linecap="round" stroke-linejoin="round"/>
        <path d="M15.369 3.51506L17.914 2.42432V18.6238L10.5 21.7984" stroke-miterlimit="10" stroke-linecap="round" stroke-linejoin="round"/>
        <path d="M15.369 16.8469L10.5 21.7985V5.60002L15.369 0.647461V16.8469Z" stroke-miterlimit="10" stroke-linecap="round" stroke-linejoin="round"/>
    </symbol>

    <symbol id="left__arrow" viewBox="0 0 34 34">
        <circle cx="17" cy="17" r="17" transform="rotate(-180 17 17)"/>
        <path d="M27 17L7 17M7 17L18 28M7 17L18 6" stroke="currentColor" stroke-linejoin="round"/>
    </symbol>

    <symbol id="right__arrow" viewBox="0 0 34 34">
        <circle cx="17" cy="17" r="17"/>
        <path d="M7 17H27M27 17L16 6M27 17L16 28" stroke="currentColor" stroke-linejoin="round"/>
    </symbol>

    <symbol id="facebook" viewBox="0 0 19 32">
        <path d="M10.6048 9.55733H16.8341V14.6795H10.7904V32H3.74824V14.6816H0V9.55733H3.74824V8.53333C3.74824 5.91147 4.56319 3.84213 6.20586 2.304C7.84213 0.765867 10.1568 0 13.137 0C14.1845 0 15.1893 0.110933 16.1365 0.322133C17.0816 0.5312 17.8731 0.836267 18.5067 1.23947L16.6549 6.0608C15.84 5.5232 14.8949 5.248 13.8112 5.248C11.6693 5.248 10.6027 6.35733 10.6027 8.58027V9.55733H10.6048Z"/>
    </symbol>

    <symbol id="instagram" viewBox="0 0 33 32">
        <path d="M22.329 0C19.9096 0 12.0883 0 9.67105 0C4.3331 0 0 4.31815 0 9.65184C0 12.084 0 19.9139 0 22.3482C0 27.6818 4.3331 32 9.67105 32C12.0883 32 19.9096 32 22.329 32C27.6669 32 32.0021 27.6818 32.0021 22.3482C32.0021 19.9117 32.0021 12.0819 32.0021 9.65184C32.0021 4.31815 27.6669 0 22.329 0ZM28.819 22.3972C28.819 25.9345 25.9431 28.7998 22.4101 28.7998H9.59211C6.05054 28.7998 3.17889 25.9345 3.17889 22.3972V9.60277C3.17889 6.07614 6.05054 3.20661 9.59211 3.20661H22.4101C25.9431 3.20661 28.819 6.07614 28.819 9.60277V22.3972Z"/>
        <path d="M24.3843 9.51181C25.3824 9.51181 26.1915 8.70271 26.1915 7.70464C26.1915 6.70656 25.3824 5.89746 24.3843 5.89746C23.3862 5.89746 22.5771 6.70656 22.5771 7.70464C22.5771 8.70271 23.3862 9.51181 24.3843 9.51181Z"/>
        <path d="M16.0004 7.85938C11.4963 7.85938 7.8457 11.5036 7.8457 15.9991C7.8457 20.5053 11.4963 24.1474 16.0004 24.1474C20.5044 24.1474 24.1572 20.5053 24.1572 15.9991C24.1594 11.5036 20.5066 7.85938 16.0004 7.85938ZM16.0004 20.9406C13.2715 20.9406 11.0504 18.7302 11.0504 15.9991C11.0504 13.2702 13.2715 11.0662 16.0004 11.0662C18.7335 11.0662 20.9418 13.2681 20.9418 15.9991C20.944 18.7302 18.7357 20.9406 16.0004 20.9406Z"/>
    </symbol>

</svg>
